<?xml version="1.0" standalone="no"?>
<!DOCTYPE svg PUBLIC "-//W3C//DTD SVG 20010904//EN"
 "http://www.w3.org/TR/2001/REC-SVG-20010904/DTD/svg10.dtd">
<svg version="1.0" xmlns="http://www.w3.org/2000/svg"
 width="300.000000pt" height="279.000000pt" viewBox="0 0 300.000000 279.000000"
 preserveAspectRatio="xMidYMid meet">

<g transform="translate(0.000000,279.000000) scale(0.100000,-0.100000)"
fill="#000000" stroke="none">
<path d="M1140 2776 c-362 -76 -605 -416 -560 -782 29 -232 158 -472 328 -611
31 -25 48 -45 40 -47 -160 -47 -327 -126 -452 -213 -113 -79 -279 -249 -353
-359 -70 -107 -121 -229 -136 -329 -13 -90 -5 -120 46 -169 128 -122 491 -196
1087 -221 l145 -6 -177 178 c-98 98 -178 184 -178 191 0 10 80 209 212 527 16
39 40 98 54 133 l25 62 -30 39 c-17 21 -37 44 -46 51 -9 7 -20 21 -25 31 -9
16 -6 16 37 3 59 -18 187 -18 246 0 43 13 46 13 37 -3 -5 -10 -16 -24 -25 -31
-9 -7 -29 -30 -46 -51 l-30 -39 81 -197 c45 -109 102 -245 125 -303 24 -58 55
-132 69 -165 l25 -60 -177 -177 c-97 -98 -173 -180 -170 -183 8 -8 426 13 561
29 106 12 116 11 212 -12 248 -59 264 -61 269 -43 2 9 10 40 17 69 12 47 15
52 40 52 22 0 33 -10 60 -52 18 -29 34 -55 35 -56 2 -3 255 151 316 192 15 11
13 17 -18 68 -30 49 -33 60 -24 79 13 22 7 22 123 3 31 -6 37 -4 37 11 0 10
16 86 35 169 20 83 38 161 40 172 4 18 -1 23 -27 28 -94 19 -108 26 -108 54 0
22 9 32 50 55 27 15 52 32 55 38 4 5 -20 51 -53 102 -32 51 -76 120 -97 155
-21 35 -42 65 -47 68 -5 3 -31 -8 -58 -25 -56 -35 -72 -38 -90 -16 -9 11 -9
28 3 80 8 36 14 65 13 65 -2 0 -80 18 -175 40 -94 22 -180 40 -190 40 -15 0
-21 -13 -32 -64 -11 -57 -15 -65 -38 -70 -28 -5 -31 -2 -73 68 l-28 46 -82
-51 c-46 -29 -99 -62 -120 -75 -36 -23 -36 -23 -75 -5 -31 15 -154 60 -211 77
-8 2 6 19 35 42 142 113 262 303 315 500 27 103 30 289 4 381 -23 84 -77 192
-129 260 -85 111 -234 209 -372 246 -83 22 -244 28 -325 11z m1298 -1511 c59
-14 72 -21 67 -33 -3 -9 -8 -34 -11 -57 -5 -38 -4 -41 35 -63 23 -12 57 -36
76 -53 l35 -31 45 31 45 31 45 -70 c25 -39 45 -74 45 -80 0 -5 -20 -21 -44
-35 l-44 -26 14 -52 c8 -29 14 -70 14 -93 l0 -41 55 -12 c30 -7 55 -18 55 -24
0 -7 -9 -43 -18 -82 -18 -67 -20 -70 -48 -70 -16 1 -41 4 -56 8 -24 6 -29 3
-43 -27 -9 -19 -33 -53 -53 -76 l-36 -43 28 -50 c15 -27 26 -50 24 -51 -2 -1
-34 -22 -72 -46 l-69 -44 -23 29 c-13 17 -27 38 -30 48 -4 12 -12 16 -22 12
-8 -3 -47 -11 -86 -17 -39 -6 -76 -12 -83 -14 -6 -1 -14 -20 -17 -41 -11 -65
-13 -66 -102 -45 -86 21 -85 19 -70 93 7 35 6 37 -41 66 -26 17 -60 42 -75 57
l-27 28 -45 -31 c-24 -17 -47 -31 -49 -31 -3 0 -20 24 -38 53 -17 28 -38 62
-46 74 -14 21 -13 24 32 50 39 24 45 32 41 53 -3 14 -11 57 -17 97 l-11 72
-37 6 c-64 11 -65 13 -45 105 l17 82 36 -7 c20 -3 45 -9 56 -11 16 -4 25 3 38
30 9 19 32 53 52 74 19 22 35 42 35 46 0 4 -11 24 -25 44 -14 20 -25 40 -25
44 0 7 134 98 144 98 2 0 16 -21 31 -46 22 -38 31 -45 48 -39 12 3 55 11 95
18 l72 11 11 41 c15 61 17 65 31 61 7 -3 46 -12 86 -21z"/>
<path d="M2203 1016 c-182 -58 -279 -267 -202 -436 31 -67 91 -129 156 -161
40 -20 63 -24 138 -24 78 0 97 4 141 27 65 34 134 111 157 174 36 102 17 223
-50 310 -75 99 -222 146 -340 110z"/>
</g>
</svg>
