<svg width="403" height="460" xmlns="http://www.w3.org/2000/svg" viewBox="0 0 448 512"><!--!Font Awesome Free 6.7.2 by @fontawesome - https://fontawesome.com License - https://fontawesome.com/license/free Copyright 2025 Fonticons, Inc.--><g><title>Layer 1</title><path d="m120.57143,155.71427a103.42858,103.42858 0 1 0 206.85715,0a103.42858,103.42858 0 1 0 -206.85715,0zm76.35938,161.76876l15.02946,25.04911l-26.90759,100.11563l-29.08929,-118.70045c-1.61607,-6.54509 -7.91875,-10.82768 -14.46384,-9.1308c-56.5625,14.14063 -98.49956,65.37009 -98.49956,126.37679c0,13.73661 11.15089,24.8067 24.8067,24.8067l106.41831,0c0,0 0,0 0.0808,0l4.4442,0l90.5,0l4.4442,0c0,0 0,0 0.0808,0l106.41831,0c13.73661,0 24.8067,-11.15089 24.8067,-24.8067c0,-61.0067 -41.93706,-112.23617 -98.49956,-126.37679c-6.54509,-1.61607 -12.84777,2.66652 -14.46384,9.1308l-29.08929,118.70045l-26.90759,-100.11563l15.02946,-25.04911c5.17143,-8.64598 -1.05045,-19.55447 -11.07009,-19.55447l-15.99911,0l-15.9183,0c-10.01964,0 -16.24152,10.98929 -11.07009,19.55447l-0.0808,0l0.00001,0z" id="svg_1" stroke="null" /></g></svg>