<svg version="1.1" xmlns="http://www.w3.org/2000/svg" xmlns:xlink="http://www.w3.org/1999/xlink" width="26" height="26" viewBox="0,0,256,256"><g fill="#525661" fill-rule="nonzero" stroke="none" stroke-width="1" stroke-linecap="butt" stroke-linejoin="miter" stroke-miterlimit="10" stroke-dasharray="" stroke-dashoffset="0" font-family="none" font-weight="none" font-size="none" text-anchor="none" style="mix-blend-mode: normal"><g transform="translate(-0.00161,-0.0397) scale(9.84615,9.84615)"><path d="M11.312,18.544c0.00919,0.89765 0.71896,1.63128 1.61581,1.67013c0.89685,0.03885 1.66741,-0.63064 1.75419,-1.52413l0.007,-0.146h1.5c-0.00807,1.72034 -1.37924,3.12419 -3.09892,3.17277c-1.71968,0.04858 -3.16791,-1.27563 -3.27308,-2.99277l-0.005,-0.18z"></path><path d="M13,4.29c3.756,0 6.815,2.956 6.941,6.65l0.004,0.237v3.872l1.039,1.301c0.188,0.236 0.303,0.521 0.332,0.82l0.008,0.15c0,0.8 -0.604,1.458 -1.38,1.545l0.001,0.01h-13.89v-0.01c-0.56201,-0.06415 -1.04486,-0.42843 -1.26084,-0.95124c-0.21598,-0.5228 -0.13103,-1.12166 0.22184,-1.56376l1.038,-1.301v-3.872l0.005,-0.237c0.125,-3.694 3.185,-6.65 6.94,-6.65zM13,5.79c-2.865,0 -5.22,2.191 -5.43,4.956l-0.012,0.22l-0.003,0.211v4.397l-1.367,1.712c-0.00963,0.01197 -0.01381,0.02743 -0.01153,0.04263c0.00228,0.0152 0.01081,0.02875 0.02353,0.03737l0.022,0.008h13.555l0.033,-0.008c0.004,0 0.008,0 0.01,0.005l0.005,0.003l-0.003,-0.067l-0.01,-0.02l-1.368,-1.713l0.001,-4.371l-0.003,-0.212c-0.099,-2.893 -2.502,-5.201 -5.442,-5.201z"></path></g></g></svg>